<?xml version="1.0" encoding="UTF-8" standalone="no"?>
<!-- Created with Inkscape (http://www.inkscape.org/) -->

<svg
   width="100mm"
   height="100mm"
   viewBox="0 0 377.95276 377.95277"
   version="1.1"
   id="svg5"
   inkscape:version="1.2 (dc2aedaf03, 2022-05-15)"
   sodipodi:docname="inkspace_icon.svg"
   xml:space="preserve"
   xmlns:inkscape="http://www.inkscape.org/namespaces/inkscape"
   xmlns:sodipodi="http://sodipodi.sourceforge.net/DTD/sodipodi-0.dtd"
   xmlns="http://www.w3.org/2000/svg"
   xmlns:svg="http://www.w3.org/2000/svg"><sodipodi:namedview
     id="namedview7"
     pagecolor="#ffffff"
     bordercolor="#666666"
     borderopacity="1.0"
     inkscape:pageshadow="2"
     inkscape:pageopacity="0.0"
     inkscape:pagecheckerboard="0"
     inkscape:document-units="mm"
     showgrid="false"
     inkscape:zoom="0.91051"
     inkscape:cx="-281.16111"
     inkscape:cy="206.47769"
     inkscape:window-width="1920"
     inkscape:window-height="974"
     inkscape:window-x="-11"
     inkscape:window-y="-11"
     inkscape:window-maximized="1"
     inkscape:current-layer="layer1"
     width="100mm"
     inkscape:showpageshadow="2"
     inkscape:deskcolor="#d1d1d1" /><defs
     id="defs2"><clipPath
       clipPathUnits="userSpaceOnUse"
       id="clipPath6553"><rect
         style="fill:none;stroke:#005c94;stroke-width:2.83465;stroke-linecap:round;stroke-linejoin:round;stroke-miterlimit:4;stroke-dasharray:none"
         id="rect6555"
         width="1542.4525"
         height="392.69293"
         x="-713.64386"
         y="775.94611" /></clipPath><clipPath
       clipPathUnits="userSpaceOnUse"
       id="clipPath6661"><rect
         style="fill:none;stroke:#005c94;stroke-width:2.83465;stroke-linecap:round;stroke-linejoin:round;stroke-miterlimit:4;stroke-dasharray:none"
         id="rect6663"
         width="454.43182"
         height="400.96017"
         x="-713.64386"
         y="775.94611" /></clipPath><clipPath
       clipPathUnits="userSpaceOnUse"
       id="clipPath7054"><rect
         style="fill:none;stroke:#005c94;stroke-width:2.83465;stroke-linecap:round;stroke-linejoin:round;stroke-miterlimit:4;stroke-dasharray:none"
         id="rect7056"
         width="583.086"
         height="415.07816"
         x="1111.8165"
         y="1314.4142" /></clipPath></defs><g
     inkscape:label="Vrstva 1"
     inkscape:groupmode="layer"
     id="layer1"><path
       style="fill:none;stroke:#005c94;stroke-width:3.77953;stroke-linecap:butt;stroke-linejoin:miter;stroke-dasharray:none;stroke-opacity:1"
       d="M 38.530325,166.7433 140.42943,63.039412 c 38.59399,-45.942333 60.0675,-37.908381 89.42388,-4.579608 L 331.23183,158.84351 c 17.15924,15.53611 23.32056,31.62215 -7.07816,46.98369 -22.56647,13.7422 -103.27593,28.64204 -66.18688,44.75152 37.53927,12.88179 25.06134,27.02187 -15.39181,41.86573 -56.08205,25.74584 11.1745,16.4939 -19.20392,36.50496 -25.52972,12.85754 -38.02319,11.27557 -41.10892,10.14459 -23.71805,-6.66835 -6.94876,-22.71348 -24.36992,-29.54129 -16.6176,-2.62777 -41.08131,-4.93707 -18.13456,-23.26498 27.33107,-16.93946 -25.20942,-27.53998 -52.959453,-36.85776 -27.917964,-7.63047 -16.951786,-14.39369 7.803685,-24.00348 22.984268,-9.78725 1.86226,-19.50781 -37.344346,-27.17994 -23.38612,-6.0961 -34.37407,-15.37784 -18.727221,-31.50325 z"
       id="path17939"
       sodipodi:nodetypes="ccccccccccccccc" /><path
       style="fill:none;stroke:#005c94;stroke-width:3.77953;stroke-linecap:round;stroke-linejoin:round;stroke-dasharray:none;stroke-opacity:1"
       d="m 127.95855,284.15969 c -15.29354,-7.13182 -30.696744,-0.94302 -33.943194,6.67534 -3.094533,7.41687 -0.601718,12.51446 15.447284,11.98496 13.90031,-0.67648 15.8123,-10.62285 18.49591,-18.6603 z"
       id="path17941"
       sodipodi:nodetypes="cccc" /><path
       style="fill:none;stroke:#005c94;stroke-width:3.77953;stroke-linecap:round;stroke-linejoin:round;stroke-dasharray:none;stroke-opacity:1"
       d="m 295.53031,269.75973 c 8.27785,3.87963 31.32445,8.5939 43.85155,-0.20782 -1.31752,-6.80583 -0.0667,-15.57794 -22.65316,-15.79487 -13.98064,1.05133 -19.16378,8.39004 -21.19839,16.00269 z"
       id="path17943"
       sodipodi:nodetypes="cccc" /><path
       style="fill:none;stroke:#005c94;stroke-width:3.77952762;stroke-linecap:round;stroke-linejoin:round;stroke-opacity:1;stroke-dasharray:none"
       d="m 289.76026,280.83983 c 7.99947,3.8384 16.70499,5.78953 16.45667,15.61075 -2.86676,3.61977 -11.77654,5.60968 -17.37947,1.84561 -7.21147,-6.6046 -4.22693,-12.41577 0.9228,-17.45636 z"
       id="path17945"
       sodipodi:nodetypes="cccc" /><path
       style="fill:none;stroke:#005c94;stroke-width:3.77952762;stroke-linecap:butt;stroke-linejoin:miter;stroke-opacity:1;stroke-dasharray:none"
       d="m 105.16333,120.60398 45.90463,1.66926 15.44065,-38.810276 10.85019,43.400736 32.13324,-18.77916 19.61379,10.43287 3.33852,-28.377408 23.78695,17.944538"
       id="path17947" /></g></svg>
