<?xml version="1.0" encoding="UTF-8" standalone="no"?>
<!-- Created with Inkscape (http://www.inkscape.org/) -->

<svg
   width="100mm"
   height="100mm"
   viewBox="0 0 377.95276 377.95277"
   version="1.1"
   id="svg5"
   inkscape:version="1.1.2 (b8e25be833, 2022-02-05)"
   sodipodi:docname="laragon_icon.svg"
   xmlns:inkscape="http://www.inkscape.org/namespaces/inkscape"
   xmlns:sodipodi="http://sodipodi.sourceforge.net/DTD/sodipodi-0.dtd"
   xmlns="http://www.w3.org/2000/svg"
   xmlns:svg="http://www.w3.org/2000/svg">
  <sodipodi:namedview
     id="namedview7"
     pagecolor="#ffffff"
     bordercolor="#666666"
     borderopacity="1.0"
     inkscape:pageshadow="2"
     inkscape:pageopacity="0.0"
     inkscape:pagecheckerboard="0"
     inkscape:document-units="mm"
     showgrid="false"
     inkscape:zoom="0.54196687"
     inkscape:cx="115.3207"
     inkscape:cy="282.30508"
     inkscape:window-width="2880"
     inkscape:window-height="1694"
     inkscape:window-x="2869"
     inkscape:window-y="-11"
     inkscape:window-maximized="1"
     inkscape:current-layer="layer1"
     width="100mm" />
  <defs
     id="defs2">
    <clipPath
       clipPathUnits="userSpaceOnUse"
       id="clipPath6553">
      <rect
         style="fill:none;stroke:#005c94;stroke-width:2.83465;stroke-linecap:round;stroke-linejoin:round;stroke-miterlimit:4;stroke-dasharray:none"
         id="rect6555"
         width="1542.4525"
         height="392.69293"
         x="-713.64386"
         y="775.94611" />
    </clipPath>
    <clipPath
       clipPathUnits="userSpaceOnUse"
       id="clipPath6661">
      <rect
         style="fill:none;stroke:#005c94;stroke-width:2.83465;stroke-linecap:round;stroke-linejoin:round;stroke-miterlimit:4;stroke-dasharray:none"
         id="rect6663"
         width="454.43182"
         height="400.96017"
         x="-713.64386"
         y="775.94611" />
    </clipPath>
    <clipPath
       clipPathUnits="userSpaceOnUse"
       id="clipPath7054">
      <rect
         style="fill:none;stroke:#005c94;stroke-width:2.83465;stroke-linecap:round;stroke-linejoin:round;stroke-miterlimit:4;stroke-dasharray:none"
         id="rect7056"
         width="583.086"
         height="415.07816"
         x="1111.8165"
         y="1314.4142" />
    </clipPath>
  </defs>
  <g
     inkscape:label="Vrstva 1"
     inkscape:groupmode="layer"
     id="layer1">
    <g
       id="g6161"
       transform="matrix(0.65374383,0,0,0.65374383,-180.31595,-82.213432)">
      <path
         style="fill:none;stroke:#005c94;stroke-width:5.66929;stroke-linecap:butt;stroke-linejoin:miter;stroke-miterlimit:4;stroke-dasharray:none;stroke-opacity:1"
         d="M 409.07972,612.31678 C 268.88265,529.91078 276.08115,226.83002 511.07048,216.63731 558.29929,159.19952 658.45049,191.1478 683.78476,273.21612 711.24177,384.40596 615.76847,527.10748 478.31432,462.30847"
         id="path54"
         sodipodi:nodetypes="cccc" />
      <path
         style="fill:none;stroke:#005c94;stroke-width:5.66929;stroke-linecap:butt;stroke-linejoin:miter;stroke-miterlimit:4;stroke-dasharray:none;stroke-opacity:1"
         d="m 408.802,612.15473 c 2.33017,1.85444 13.71698,-7.91079 11.38946,-12.377 -13.97741,-19.45424 -25.78719,-32.83771 -33.95641,-123.10716 l 58.40628,33.3481 c 6.47446,19.2266 4.07659,128.92255 38.81191,130.18948 l 80.26152,0.56523 c 18.26842,-0.66776 25.3824,-15.44932 23.92774,-41.07281 l -0.56523,-48.98591 c -0.67964,-20.31228 31.45404,-20.9737 30.52199,-0.18841 l 1.13045,67.82664 c 0.71262,9.15849 2.36151,17.99865 16.64563,22.54283 l 54.18955,1.2185 C 884.75377,516.85734 823.14751,280.4491 684.20424,273.50436"
         id="path545"
         sodipodi:nodetypes="ccccccccccccc" />
      <path
         style="fill:none;stroke:#005c94;stroke-width:5.66929;stroke-linecap:butt;stroke-linejoin:miter;stroke-miterlimit:4;stroke-dasharray:none;stroke-opacity:1"
         d="m 386.23505,476.67057 c -10.36432,-9.12964 -19.39312,-19.80848 -22.06116,-37.86581 -0.9424,-18.83643 6.28311,-17.51657 14.86424,-12.85137 17.44958,9.53652 25.25162,11.68664 32.98003,13.78039 12.20259,2.04743 20.4416,0.61104 20.2835,17.34161 -1.65268,29.07196 -8.70758,29.69754 -17.03194,36.38642"
         id="path2312"
         sodipodi:nodetypes="cccccc" />
      <path
         style="fill:none;stroke:#005c94;stroke-width:2.83465;stroke-linecap:round;stroke-linejoin:round;stroke-miterlimit:4;stroke-dasharray:none;stroke-opacity:1"
         d="m 415.36684,383.15523 c 21.69274,-20.78514 43.53053,-36.27613 66.86729,2.94542"
         id="path3414"
         sodipodi:nodetypes="cc" />
      <path
         style="fill:none;stroke:#005c94;stroke-width:2.83465;stroke-linecap:round;stroke-linejoin:round;stroke-miterlimit:4;stroke-dasharray:none;stroke-opacity:1"
         d="m 415.36684,383.15523 c 11.42542,-43.82218 61.69861,-45.73089 66.86729,2.94542"
         id="path3544"
         sodipodi:nodetypes="cc" />
      <path
         style="fill:none;stroke:#005c94;stroke-width:5.66929;stroke-linecap:butt;stroke-linejoin:miter;stroke-miterlimit:4;stroke-dasharray:none;stroke-opacity:1"
         d="m 478.31432,462.30847 c 58.71643,38.79684 113.81181,26.23695 159.4695,-11.24961 45.65769,-37.48656 73.68726,-121.37691 46.42042,-177.5545"
         id="path4796"
         sodipodi:nodetypes="csc" />
    </g>
  </g>
</svg>
