<?xml version="1.0" encoding="UTF-8" standalone="no"?>
<!-- Created with Inkscape (http://www.inkscape.org/) -->

<svg
   width="100mm"
   height="100mm"
   viewBox="0 0 377.95276 377.95277"
   version="1.1"
   id="svg5"
   inkscape:version="1.2 (dc2aedaf03, 2022-05-15)"
   sodipodi:docname="nette_icon.svg"
   xml:space="preserve"
   xmlns:inkscape="http://www.inkscape.org/namespaces/inkscape"
   xmlns:sodipodi="http://sodipodi.sourceforge.net/DTD/sodipodi-0.dtd"
   xmlns="http://www.w3.org/2000/svg"
   xmlns:svg="http://www.w3.org/2000/svg"><sodipodi:namedview
     id="namedview7"
     pagecolor="#ffffff"
     bordercolor="#666666"
     borderopacity="1.0"
     inkscape:pageshadow="2"
     inkscape:pageopacity="0.0"
     inkscape:pagecheckerboard="0"
     inkscape:document-units="mm"
     showgrid="false"
     inkscape:zoom="0.67152728"
     inkscape:cx="537.58054"
     inkscape:cy="95.305138"
     inkscape:window-width="1920"
     inkscape:window-height="974"
     inkscape:window-x="-11"
     inkscape:window-y="-11"
     inkscape:window-maximized="1"
     inkscape:current-layer="layer1"
     width="100mm"
     inkscape:showpageshadow="2"
     inkscape:deskcolor="#d1d1d1"
     showguides="false" /><defs
     id="defs2"><clipPath
       clipPathUnits="userSpaceOnUse"
       id="clipPath6553"><rect
         style="fill:none;stroke:#005c94;stroke-width:2.83465;stroke-linecap:round;stroke-linejoin:round;stroke-miterlimit:4;stroke-dasharray:none"
         id="rect6555"
         width="1542.4525"
         height="392.69293"
         x="-713.64386"
         y="775.94611" /></clipPath><clipPath
       clipPathUnits="userSpaceOnUse"
       id="clipPath6661"><rect
         style="fill:none;stroke:#005c94;stroke-width:2.83465;stroke-linecap:round;stroke-linejoin:round;stroke-miterlimit:4;stroke-dasharray:none"
         id="rect6663"
         width="454.43182"
         height="400.96017"
         x="-713.64386"
         y="775.94611" /></clipPath><clipPath
       clipPathUnits="userSpaceOnUse"
       id="clipPath7054"><rect
         style="fill:none;stroke:#005c94;stroke-width:2.83465;stroke-linecap:round;stroke-linejoin:round;stroke-miterlimit:4;stroke-dasharray:none"
         id="rect7056"
         width="583.086"
         height="415.07816"
         x="1111.8165"
         y="1314.4142" /></clipPath></defs><g
     inkscape:label="Vrstva 1"
     inkscape:groupmode="layer"
     id="layer1"><g
       id="g27697"
       transform="matrix(0.70259363,0,0,0.70259363,-341.70461,77.76199)"><path
         style="fill:none;stroke:#005c94;stroke-width:3.77953;stroke-linecap:round;stroke-linejoin:round;stroke-dasharray:none;stroke-opacity:1"
         d="m 532.69797,219.09778 c -8.97814,-29.39751 -2.54234,-57.41996 11.98701,-83.41554 l 36.89726,-6.05509 -9.78728,25.88194 c 18.89714,-18.46574 62.97472,-40.67235 64.37858,-5.65488 1.42414,27.90445 -26.47846,50.03788 -7.61233,48.06644 4.61352,-1.50273 9.73009,-1.99933 13.04971,-6.08986 -3.22547,-22.58743 7.52647,-41.3016 33.92926,-55.67878 14.67117,-8.19901 51.39045,-10.54994 53.9379,14.3491 0.0591,20.62564 -33.6842,28.88727 -52.14082,34.54124 10.70775,18.28058 27.73377,24.63545 61.3719,-0.36506 l 2.63825,-15.93941 38.53382,-2.35008 c -11.0103,37.10334 3.49085,38.41448 32.03233,20.02727 l 2.66434,-18.47277 38.89938,-1.86504 c -15.80714,43.66886 11.52272,31.78991 27.97558,22.29166 1.62888,-32.1056 23.34326,-55.97455 57.01691,-57.90502 24.83531,-0.95355 45.39198,23.05728 21.04278,38.42654 -13.68629,9.11966 -27.37259,12.75281 -41.05888,16.11322 6.22666,14.53744 22.42853,20.19202 40.70081,12.29379 l 22.11376,-13.47286 0.78334,12.14183 c -37.0344,29.21891 -70.20461,35.12803 -97.1346,3.39449 -17.08717,12.05594 -52.67273,40.18741 -72.48625,-0.59989 -34.02718,25.07734 -61.0637,31.44438 -73.23468,-1.97576 -26.84126,23.4418 -67.73754,33.61467 -92.67659,6.62292 -33.36793,27.5254 -64.31749,16.28657 -62.2758,-8.74734 1.86009,-11.5143 9.07334,-24.81299 14.3613,-37.46992 l -0.78335,-2.35003 c -7.94541,2.87861 -19.24011,12.45581 -32.50875,25.98089 -1.49249,4.02783 -1.84261,23.03622 -0.9139,33.81432 z"
         id="path27642"
         sodipodi:nodetypes="ccccccccccccccccccccccccccccccccc" /><path
         style="fill:none;stroke:#005c94;stroke-width:3.77953;stroke-linecap:butt;stroke-linejoin:miter;stroke-dasharray:none;stroke-opacity:1"
         d="m 674.24131,171.97293 c 1.05878,-16.95168 8.49032,-25.93741 21.48263,-27.97217 6.23378,-0.32295 5.40167,15.09308 -0.44755,19.13296 -4.21421,4.28451 -14.72441,7.66854 -21.03508,8.83921 z"
         id="path27654"
         sodipodi:nodetypes="cccc" /><path
         style="fill:none;stroke:#005c94;stroke-width:3.77953;stroke-linecap:butt;stroke-linejoin:miter;stroke-dasharray:none;stroke-opacity:1"
         d="m 913.95835,171.91962 c 1.05878,-16.95168 8.49032,-25.93741 21.48263,-27.97217 6.23378,-0.32295 5.40167,15.09308 -0.44755,19.13296 -4.21421,4.28451 -14.72441,7.66854 -21.03508,8.83921 z"
         id="path27654-7"
         sodipodi:nodetypes="cccc" /><path
         style="fill:none;stroke:#005c94;stroke-width:3.77953;stroke-linecap:butt;stroke-linejoin:miter;stroke-dasharray:none;stroke-opacity:1"
         d="m 736.19587,155.3511 5.50999,-22.03996 11.17303,-0.30611 10.10165,-28.31522 39.3352,-6.887489 -10.71386,33.825209 17.75441,-1.53055 -5.05083,20.96857 z"
         id="path27656" /><path
         style="fill:none;stroke:#005c94;stroke-width:3.77953;stroke-linecap:butt;stroke-linejoin:miter;stroke-dasharray:none;stroke-opacity:1"
         d="m 811.33215,153.98911 5.50999,-22.03996 11.17303,-0.30611 10.10165,-28.31522 39.3352,-6.887486 -10.71386,33.825206 17.75441,-1.53055 -5.05083,20.96857 z"
         id="path27658" /></g></g></svg>
