<?xml version="1.0" encoding="UTF-8" standalone="no"?>
<!-- Created with Inkscape (http://www.inkscape.org/) -->

<svg
   width="100mm"
   height="100mm"
   viewBox="0 0 377.95276 377.95277"
   version="1.1"
   id="svg5"
   inkscape:version="1.1.2 (b8e25be833, 2022-02-05)"
   sodipodi:docname="vscode_icon.svg"
   xmlns:inkscape="http://www.inkscape.org/namespaces/inkscape"
   xmlns:sodipodi="http://sodipodi.sourceforge.net/DTD/sodipodi-0.dtd"
   xmlns="http://www.w3.org/2000/svg"
   xmlns:svg="http://www.w3.org/2000/svg">
  <sodipodi:namedview
     id="namedview7"
     pagecolor="#ffffff"
     bordercolor="#666666"
     borderopacity="1.0"
     inkscape:pageshadow="2"
     inkscape:pageopacity="0.0"
     inkscape:pagecheckerboard="0"
     inkscape:document-units="mm"
     showgrid="false"
     inkscape:zoom="0.54196687"
     inkscape:cx="334.89132"
     inkscape:cy="282.30508"
     inkscape:window-width="2880"
     inkscape:window-height="1694"
     inkscape:window-x="2869"
     inkscape:window-y="-11"
     inkscape:window-maximized="1"
     inkscape:current-layer="layer1"
     width="100mm" />
  <defs
     id="defs2">
    <clipPath
       clipPathUnits="userSpaceOnUse"
       id="clipPath6553">
      <rect
         style="fill:none;stroke:#005c94;stroke-width:2.83465;stroke-linecap:round;stroke-linejoin:round;stroke-miterlimit:4;stroke-dasharray:none"
         id="rect6555"
         width="1542.4525"
         height="392.69293"
         x="-713.64386"
         y="775.94611" />
    </clipPath>
    <clipPath
       clipPathUnits="userSpaceOnUse"
       id="clipPath6661">
      <rect
         style="fill:none;stroke:#005c94;stroke-width:2.83465;stroke-linecap:round;stroke-linejoin:round;stroke-miterlimit:4;stroke-dasharray:none"
         id="rect6663"
         width="454.43182"
         height="400.96017"
         x="-713.64386"
         y="775.94611" />
    </clipPath>
    <clipPath
       clipPathUnits="userSpaceOnUse"
       id="clipPath7054">
      <rect
         style="fill:none;stroke:#005c94;stroke-width:2.83465;stroke-linecap:round;stroke-linejoin:round;stroke-miterlimit:4;stroke-dasharray:none"
         id="rect7056"
         width="583.086"
         height="415.07816"
         x="1111.8165"
         y="1314.4142" />
    </clipPath>
  </defs>
  <g
     inkscape:label="Vrstva 1"
     inkscape:groupmode="layer"
     id="layer1">
    <g
       id="g11429"
       style="stroke:#005c94;stroke-width:3.77953;stroke-miterlimit:4;stroke-dasharray:none"
       transform="translate(-1213.9602,-1331.3957)">
      <path
         style="fill:none;stroke:#005c94;stroke-width:3.77953;stroke-linecap:butt;stroke-linejoin:miter;stroke-miterlimit:4;stroke-dasharray:none;stroke-opacity:1"
         d="m 1291.7537,1529.717 39.7157,35.7442 -42.6944,31.7726 c -6.8075,4.6858 -12.7685,6.7468 -20.5198,0 l -17.4538,-15.6717 c -6.9457,-7.3581 -3.9446,-14.9411 2.5604,-20.0725 z"
         id="path7157"
         sodipodi:nodetypes="ccccccc" />
      <path
         style="fill:none;stroke:#005c94;stroke-width:3.77953;stroke-linecap:butt;stroke-linejoin:miter;stroke-miterlimit:4;stroke-dasharray:none;stroke-opacity:1"
         d="m 1337.1525,1484.3748 110.7673,-99.784 c 12.0682,-11.2514 20.3147,-10.1574 20.3307,4.6737 v 60.0574 c 0.096,7.8252 -2.5211,8.9016 -12.1517,17.0591 l -69.6833,55.3954 c 20.0817,18.8522 51.9893,41.4142 77.8623,61.6814 3.3944,3.6331 4.9148,9.5811 4.44,17.9938 l -0.9347,53.2805 c 0.2486,12.1259 -9.7393,13.4173 -17.9938,6.5432 l -196.9975,-181.5742 c -10.3017,-11.0709 -5.7004,-15.5518 -2.3369,-18.9286 l 18.9286,-16.5917 c 7.1993,-5.3987 13.1583,-3.1788 18.6949,1.6358 z"
         id="path7912"
         sodipodi:nodetypes="ccccccccccccccc" />
      <path
         style="fill:none;stroke:#005c94;stroke-width:3.77953;stroke-linecap:round;stroke-linejoin:round;stroke-miterlimit:4;stroke-dasharray:none;stroke-opacity:1"
         d="m 1468.8855,1367.3355 c 1.8165,-3.0501 8.4686,-5.1526 13.5913,-2.5644 l 66.4179,33.5936 c 8.9026,5.6349 10.514,9.5783 10.514,25.9004 v 195.6633 c -0.5362,19.3387 -7.1783,21.5807 -13.0784,25.9004 l -63.597,29.4905 c -7.293,3.044 -11.1382,1.8741 -14.6171,0.2565 7.3706,-1.2022 13.8477,-8.5228 13.8477,-12.822 v -285.4172 c -0.5735,-9.9175 -10.5752,-10.674 -13.0784,-10.0011 z"
         id="path9336"
         sodipodi:nodetypes="ccccccccccc" />
    </g>
  </g>
</svg>
